<svg width="1035" height="484" viewBox="0 0 1035 484" fill="none" xmlns="http://www.w3.org/2000/svg">
<g clip-path="url(#clip0_34_24)">
<path d="M752 438.535C757 462.535 785.5 433.035 785.5 433.035L819.5 429.035C819.5 429.035 841 429.535 855 440.535C869 451.535 878.5 437.035 878.5 437.035C894.273 442.292 913.597 442.271 930.333 440.587C954.449 438.161 973.779 419.547 977.093 395.537C995.79 260.095 893 193.535 893 193.535L863 112.535C863 112.535 872.5 89.0349 875.5 68.0349C878.5 47.0349 856.5 27.0348 829.5 7.03484C817.687 -1.71516 804.152 -1.08625 792.663 2.38982C779.774 6.28928 768.531 14.3081 760.223 24.906C753.34 33.6859 741.536 46.1207 728.56 48.2748C724.07 49.0148 719.64 50.7949 715.5 54.0348C711.22 57.3848 709.33 62.9748 709.27 69.9249C708.95 100.285 734.02 136.835 756 142.535C783 149.535 768.5 216.035 768.5 216.035C724.5 278.035 755.5 347.035 755.5 347.035L747.5 403.035C747.5 403.035 747 414.535 752 438.535Z" fill="#3F3D56"/>
<path d="M899 309.535L888 446.535C888 446.535 903 484.535 852 482.535C801 480.535 831 402.535 831 402.535L847 300.535" fill="#3F3D56"/>
<path d="M855.795 483.611C854.548 483.611 853.271 483.586 851.961 483.534C840.671 483.091 832.357 478.933 827.25 471.175C812.647 448.994 828.889 405.269 830.028 402.276L846.012 300.38C846.098 299.834 846.605 299.466 847.155 299.547C847.7 299.632 848.073 300.144 847.988 300.69L831.988 402.69C831.977 402.759 831.959 402.828 831.934 402.894C831.759 403.346 814.682 448.45 828.922 470.078C833.654 477.264 841.432 481.12 852.039 481.536C868.691 482.185 879.892 478.632 885.337 470.967C892.461 460.939 887.124 447.041 887.069 446.901C887.014 446.759 886.991 446.606 887.003 446.455L898.003 309.455C898.047 308.905 898.52 308.504 899.08 308.538C899.631 308.583 900.041 309.064 899.997 309.615L889.015 446.39C889.741 448.351 894.297 461.795 886.976 472.114C881.559 479.75 871.077 483.611 855.795 483.611Z" fill="#2F2E41"/>
<path d="M808 337.535C808 337.535 811 464.535 748 461.535C685 458.535 742 418.535 742 418.535L747.5 403.035" fill="#3F3D56"/>
<path d="M750.162 462.587C749.431 462.587 748.695 462.569 747.952 462.534C729.964 461.677 719.8 457.647 717.744 450.555C714.04 437.776 738.184 420.034 741.163 417.902L746.558 402.701C746.742 402.179 747.314 401.908 747.834 402.092C748.355 402.277 748.627 402.848 748.443 403.369L742.943 418.869C742.873 419.065 742.744 419.234 742.574 419.353C742.311 419.539 716.197 438.038 719.666 449.999C721.458 456.179 731.007 459.724 748.048 460.536C759.397 461.082 769.345 457.265 777.599 449.207C808.551 418.991 807.02 338.369 807 337.558C806.987 337.006 807.424 336.548 807.977 336.535C808.499 336.536 808.986 336.96 809 337.511C809.079 340.857 810.572 419.809 778.997 450.636C770.869 458.572 761.177 462.587 750.162 462.587Z" fill="#2F2E41"/>
<path d="M709.27 69.9248C716.45 70.7848 727.69 70.7448 737 64.5348C746.97 57.8848 736.62 51.6848 728.56 48.2748C724.07 49.0148 719.64 50.7948 715.5 54.0348C711.22 57.3848 709.33 62.9748 709.27 69.9248Z" fill="#2F2E41"/>
<path d="M825.299 51.9439C825.299 51.9439 807.849 7.12748 832.841 6.50037C857.833 5.87326 877.574 44.7103 877.574 44.7103C877.574 44.7103 940.302 159.053 854.36 152.887C768.418 146.721 809.486 101.076 809.486 101.076C809.486 101.076 829.088 76.9767 825.299 51.9439Z" fill="#2F2E41"/>
<path d="M921.038 386.851C932.106 391.774 943.67 396.799 955.774 396.318C967.878 395.837 980.616 388.042 982.502 376.077C983.476 369.9 981.545 363.273 983.91 357.484C987.092 349.695 997.356 346.692 1005.34 349.361C1013.31 352.03 1019.18 358.913 1023.38 366.201C1031.24 379.838 1034.39 397.736 1025.96 411.029C1018.65 422.553 1004.79 427.76 991.897 432.227C974.721 438.176 955.546 444.081 938.903 436.773C922.165 429.423 913.047 408.188 919.245 390.991" fill="#3F3D56"/>
<path d="M884.114 170.921C884.114 170.921 906.114 181.921 895.114 193.921C884.114 205.921 816.114 239.921 791.114 234.921C766.114 229.921 760.114 214.921 760.114 210.921C760.114 206.921 762 158.535 770 160.535C778 162.535 828.114 207.921 884.114 170.921Z" fill="#6C63FF"/>
</g>
<g clip-path="url(#clip1_34_24)">
<path d="M560.17 467.74L418.68 463.72C418.68 463.72 429.33 400.01 395.16 382.33C371.87 370.27 351.2 313.94 357.08 275.61C357.16 275.1 357.24 274.59 357.33 274.09C360.31 256.93 368.83 243.64 385.12 240.03C437.78 228.37 475.36 237.41 475.36 237.41C475.36 237.41 484.06 237.52 496.95 239.94C497.41 240.02 497.87 240.11 498.33 240.21C534.82 247.36 602.27 272.82 605.19 363.22C609.21 487.42 560.17 467.72 560.17 467.72V467.74Z" fill="#3F3D56"/>
<path d="M496.95 239.95C496.71 246.43 495.24 252.87 492.56 258.99C487 271.68 476.86 281.37 464.02 286.28C425.56 301 380.68 286.4 357.98 270.57C357.89 271.07 356.09 280.56 356.01 281.07C366.06 287.95 415.25 294.58 424.58 294.58C438.75 294.58 452.39 292.23 464.52 287.58C477.71 282.53 488.12 272.57 493.83 259.54C496.56 253.32 498.06 246.79 498.33 240.21C497.87 240.11 497.41 240.02 496.95 239.94V239.95Z" fill="#6C63FF"/>
<path d="M507.41 248.2L484.86 191.49C484.86 191.49 511.93 145.09 490.66 139.94C469.39 134.78 447.48 162.49 447.48 162.49C447.48 162.49 406.88 148.31 391.42 159.91C391.42 159.91 365.64 123.82 350.18 130.91C334.71 138 355.68 189.09 355.68 189.09C355.68 189.09 323.76 235.95 348.25 263.01C372.74 290.08 464.89 311.99 507.42 248.19L507.41 248.2Z" fill="#3F3D56"/>
<path d="M555.78 433.8C563.46 437.22 571.48 440.7 579.88 440.37C588.28 440.04 597.11 434.63 598.42 426.33C599.1 422.04 597.76 417.45 599.4 413.43C601.61 408.03 608.73 405.94 614.26 407.79C619.8 409.64 623.86 414.42 626.78 419.47C632.24 428.93 634.42 441.35 628.57 450.57C623.5 458.56 613.88 462.18 604.94 465.28C593.02 469.41 579.72 473.5 568.17 468.43C556.56 463.33 550.23 448.6 554.53 436.67" fill="#3F3D56"/>
<path d="M428.74 222.71C428.74 222.71 414.86 217.16 405.85 224.1L416.26 240.06L428.75 222.72L428.74 222.71Z" fill="#6C63FF"/>
<path d="M355.89 295.55L381.56 432.23C381.56 432.23 342.71 471.78 392.66 471.08C442.61 470.39 428.04 444.72 428.04 444.72L412.08 326.08" fill="#3F3D56"/>
<path d="M391.4 472.09C377.87 472.09 369.69 468.99 367.07 462.86C362.3 451.7 377.83 434.69 380.49 431.89L363.23 329.71L365.2 329.38L382.63 432.56L382.27 432.92C382.09 433.1 364.33 451.37 368.91 462.07C371.26 467.57 379.23 470.26 392.65 470.07C411.3 469.81 423.32 465.9 427.42 458.77C431.11 452.35 427.21 445.27 427.17 445.2L427.08 445.03L427.05 444.84L415.95 362.28L417.93 362.01L429.01 444.39C429.67 445.64 433.12 452.85 429.17 459.75C424.64 467.65 412.36 471.8 392.68 472.07C392.25 472.07 391.83 472.07 391.41 472.07L391.4 472.09Z" fill="#2F2E41"/>
<path d="M421.1 295.55L446.77 432.23C446.77 432.23 407.92 471.78 457.87 471.08C507.82 470.39 493.25 444.72 493.25 444.72L477.29 326.08" fill="#3F3D56"/>
<path d="M456.61 472.09C443.08 472.09 434.9 468.99 432.28 462.86C427.51 451.72 443.01 434.73 445.69 431.9L435.38 376.9L437.35 376.53L447.85 432.55L447.48 432.92C447.3 433.1 429.54 451.37 434.12 462.07C436.47 467.57 444.45 470.27 457.86 470.07C476.52 469.81 488.55 465.9 492.64 458.75C496.33 452.31 492.42 445.27 492.38 445.2L492.28 445.03L476.3 326.2L478.28 325.93L494.21 444.39C494.87 445.64 498.32 452.85 494.37 459.75C489.84 467.65 477.56 471.8 457.88 472.07C457.45 472.07 457.03 472.07 456.61 472.07V472.09Z" fill="#2F2E41"/>
</g>
<defs>
<clipPath id="clip0_34_24">
<rect width="888" height="483.611" fill="white" transform="translate(346)"/>
</clipPath>
<clipPath id="clip1_34_24">
<rect width="888" height="342.09" fill="white" transform="translate(0 130)"/>
</clipPath>
</defs>
</svg>
